<svg xmlns="http://www.w3.org/2000/svg" xmlns:xlink="http://www.w3.org/1999/xlink" width="128" height="128" preserveAspectRatio="xMidYMid meet" viewBox="0 0 128 128" style="-ms-transform: rotate(360deg); -webkit-transform: rotate(360deg); transform: rotate(360deg);"><linearGradient id="IconifyId-1775513dff8-16846d-3261" gradientUnits="userSpaceOnUse" x1="63.995" y1="17.638" x2="63.995" y2="204.039"><stop offset="0" stop-color="#e0e0e0"/><stop offset=".112" stop-color="#dcdcdc"/><stop offset=".224" stop-color="#d0d0d0"/><stop offset=".336" stop-color="#bcbcbc"/><stop offset=".419" stop-color="#a8a8a8"/><stop offset=".467" stop-color="#a4a4a4"/><stop offset=".512" stop-color="#999"/><stop offset=".556" stop-color="#868686"/><stop offset=".557" stop-color="#858585"/></linearGradient><path d="M105.1 24.04c-4.2-2.03-78.01-2.03-82.21 0c-9.05 4.39-13.55 17.88-13.55 27.83v23.91c0 2.34 17.99 3.74 39.38 4.18c-1.32 14.57-2.82 36.33.18 37.65c4.65 2.05 10.84 2.79 15.1 2.79s10.76-.84 15.4-2.89c3-1.32 1.19-22.99-.13-37.55c21.38-.44 39.38-1.84 39.38-4.18V51.87c0-9.95-4.5-23.44-13.55-27.83z" fill="url(#IconifyId-1775513dff8-16846d-3261)"/><linearGradient id="IconifyId-1775513dff8-16846d-3262" gradientUnits="userSpaceOnUse" x1="92.041" y1="41.917" x2="92.041" y2="96.617"><stop offset="0" stop-color="#e0e0e0"/><stop offset=".559" stop-color="#dcdcdc"/><stop offset=".74" stop-color="#d9d9d9"/></linearGradient><path d="M101.3 41.91L75.6 56.94c-6.3 3.68-10.18 10.55-10.18 17.99v32.18c0 8.4 8.83 13.67 15.94 9.51l26.97-15.77c6.39-3.74 10.34-10.71 10.34-18.26V52.28c-.01-9.15-9.63-14.89-17.37-10.37z" fill="url(#IconifyId-1775513dff8-16846d-3262)"/><linearGradient id="IconifyId-1775513dff8-16846d-3263" gradientUnits="userSpaceOnUse" x1="35.959" y1="55.033" x2="35.959" y2="128.566"><stop offset="0" stop-color="#bdbdbd"/><stop offset=".5" stop-color="#ababab"/><stop offset="1" stop-color="#9e9e9e"/></linearGradient><path d="M26.7 41.91l25.7 15.03c6.3 3.68 10.18 10.55 10.18 17.99v32.18c0 8.4-8.83 13.67-15.94 9.51l-26.97-15.77C13.28 97.11 9.34 90.14 9.34 82.59V52.28c0-9.15 9.62-14.89 17.36-10.37z" fill="url(#IconifyId-1775513dff8-16846d-3263)"/><radialGradient id="IconifyId-1775513dff8-16846d-3264" cx="65.001" cy="50.723" r="56.084" gradientTransform="matrix(1 0 0 .8679 0 6.701)" gradientUnits="userSpaceOnUse"><stop offset=".198" stop-color="#fafafa"/><stop offset=".516" stop-color="#f6f6f6"/><stop offset=".819" stop-color="#ebebeb"/><stop offset="1" stop-color="#e0e0e0"/></radialGradient><path d="M22.89 24.04l26.02-12.45a30.48 30.48 0 0 1 30.18 0l26.01 12.45c5.98 3.41 5.98 9.26 0 12.67L75.72 53.44a23.728 23.728 0 0 1-23.47 0L22.89 36.71c-5.98-3.41-5.98-9.26 0-12.67z" fill="url(#IconifyId-1775513dff8-16846d-3264)"/><g fill="#616161"><path d="M109.9 50.07c-3.07-1.78-7.23.29-9.88 4.88c-2.66 4.61-2.36 9.23.71 11c3.07 1.78 7.23-.27 9.88-4.88c2.67-4.6 2.36-9.22-.71-11z"/><path d="M97.67 71.26c-3.07-1.78-7.22.29-9.88 4.88c-2.66 4.61-2.36 9.23.71 11c3.07 1.78 7.23-.28 9.88-4.88c2.66-4.6 2.36-9.23-.71-11z"/><path d="M85.44 92.44c-3.06-1.78-7.22.29-9.88 4.88c-2.66 4.61-2.36 9.23.71 11c3.07 1.78 7.23-.29 9.88-4.88c2.65-4.59 2.35-9.22-.71-11z"/></g><g fill="#353535"><path d="M18.07 50.07c-3.06 1.78-3.37 6.39-.71 11c2.65 4.61 6.82 6.66 9.88 4.88c3.07-1.78 3.37-6.39.71-11c-2.65-4.59-6.81-6.65-9.88-4.88z"/><path d="M42.54 92.44c-3.07 1.78-3.36 6.4-.71 11s6.82 6.66 9.88 4.88c3.07-1.78 3.37-6.39.71-11c-2.66-4.59-6.81-6.65-9.88-4.88z"/></g><path d="M54.35 30.73c1.64-3.2 7.41-5.08 12.61-4.37s8.31 3.86 6.75 7.01c-1.56 3.15-7.54 5.01-12.89 4.31c-5.35-.7-8.11-3.74-6.47-6.95z" fill="#f44336"/><rect x="0" y="0" width="128" height="128" fill="rgba(0, 0, 0, 0)" /></svg>